<svg width="512" height="512" viewBox="0 0 512 512" fill="none" xmlns="http://www.w3.org/2000/svg">
<path d="M472 16H40C33.6348 16 27.5303 18.5286 23.0294 23.0294C18.5286 27.5303 16 33.6348 16 40V472C16 478.365 18.5286 484.47 23.0294 488.971C27.5303 493.471 33.6348 496 40 496H472C478.365 496 484.47 493.471 488.971 488.971C493.471 484.47 496 478.365 496 472V40C496 33.6348 493.471 27.5303 488.971 23.0294C484.47 18.5286 478.365 16 472 16V16ZM40 32H472C474.122 32 476.157 32.8429 477.657 34.3431C479.157 35.8434 480 37.8783 480 40V80H32V40C32 37.8783 32.8429 35.8434 34.3431 34.3431C35.8434 32.8429 37.8783 32 40 32V32ZM472 480H40C37.8783 480 35.8434 479.157 34.3431 477.657C32.8429 476.157 32 474.122 32 472V96H480V472C480 474.122 479.157 476.157 477.657 477.657C476.157 479.157 474.122 480 472 480Z" fill="#BD376B"/>
<path d="M56 64H64C66.1217 64 68.1566 63.1571 69.6569 61.6569C71.1571 60.1566 72 58.1217 72 56C72 53.8783 71.1571 51.8434 69.6569 50.3431C68.1566 48.8429 66.1217 48 64 48H56C53.8783 48 51.8434 48.8429 50.3431 50.3431C48.8429 51.8434 48 53.8783 48 56C48 58.1217 48.8429 60.1566 50.3431 61.6569C51.8434 63.1571 53.8783 64 56 64Z" fill="#BD376B"/>
<path d="M96 64H104C106.122 64 108.157 63.1571 109.657 61.6569C111.157 60.1566 112 58.1217 112 56C112 53.8783 111.157 51.8434 109.657 50.3431C108.157 48.8429 106.122 48 104 48H96C93.8783 48 91.8434 48.8429 90.3431 50.3431C88.8429 51.8434 88 53.8783 88 56C88 58.1217 88.8429 60.1566 90.3431 61.6569C91.8434 63.1571 93.8783 64 96 64V64Z" fill="#BD376B"/>
<path d="M136 64H144C146.122 64 148.157 63.1571 149.657 61.6569C151.157 60.1566 152 58.1217 152 56C152 53.8783 151.157 51.8434 149.657 50.3431C148.157 48.8429 146.122 48 144 48H136C133.878 48 131.843 48.8429 130.343 50.3431C128.843 51.8434 128 53.8783 128 56C128 58.1217 128.843 60.1566 130.343 61.6569C131.843 63.1571 133.878 64 136 64Z" fill="#BD376B"/>
<path d="M456 240H232C229.878 240 227.843 240.843 226.343 242.343C224.843 243.843 224 245.878 224 248V312C224 314.122 224.843 316.157 226.343 317.657C227.843 319.157 229.878 320 232 320H456C458.122 320 460.157 319.157 461.657 317.657C463.157 316.157 464 314.122 464 312V248C464 245.878 463.157 243.843 461.657 242.343C460.157 240.843 458.122 240 456 240ZM448 304H240V256H448V304Z" fill="#BD376B"/>
<path d="M456 336H232C229.878 336 227.843 336.843 226.343 338.343C224.843 339.843 224 341.878 224 344V408C224 410.122 224.843 412.157 226.343 413.657C227.843 415.157 229.878 416 232 416H456C458.122 416 460.157 415.157 461.657 413.657C463.157 412.157 464 410.122 464 408V344C464 341.878 463.157 339.843 461.657 338.343C460.157 336.843 458.122 336 456 336ZM448 400H240V352H448V400Z" fill="#BD376B"/>
<path d="M168 304H88C77.3952 304.013 67.2285 308.231 59.7298 315.73C52.2311 323.228 48.0127 333.395 48 344V408C48 410.122 48.8429 412.157 50.3431 413.657C51.8434 415.157 53.8783 416 56 416H200C202.122 416 204.157 415.157 205.657 413.657C207.157 412.157 208 410.122 208 408V344C207.987 333.395 203.769 323.228 196.27 315.73C188.772 308.231 178.605 304.013 168 304V304ZM192 400H64V344C64 337.635 66.5286 331.53 71.0294 327.029C75.5303 322.529 81.6348 320 88 320H168C174.365 320 180.47 322.529 184.971 327.029C189.471 331.53 192 337.635 192 344V400Z" fill="#BD376B"/>
<path d="M128 296C135.911 296 143.645 293.654 150.223 289.259C156.801 284.864 161.928 278.616 164.955 271.307C167.983 263.998 168.775 255.956 167.231 248.196C165.688 240.437 161.878 233.31 156.284 227.716C150.69 222.122 143.563 218.312 135.804 216.769C128.044 215.225 120.002 216.017 112.693 219.045C105.384 222.072 99.1365 227.199 94.7412 233.777C90.346 240.355 88 248.089 88 256C88.0127 266.605 92.2311 276.772 99.7298 284.27C107.228 291.769 117.395 295.987 128 296V296ZM128 232C132.747 232 137.387 233.408 141.334 236.045C145.28 238.682 148.357 242.43 150.173 246.816C151.99 251.201 152.465 256.027 151.539 260.682C150.613 265.338 148.327 269.614 144.971 272.971C141.614 276.327 137.338 278.613 132.682 279.539C128.027 280.465 123.201 279.99 118.816 278.173C114.43 276.357 110.682 273.28 108.045 269.334C105.408 265.387 104 260.747 104 256C104 249.635 106.529 243.53 111.029 239.029C115.53 234.529 121.635 232 128 232V232Z" fill="#BD376B"/>
<path d="M232 200H264C266.122 200 268.157 199.157 269.657 197.657C271.157 196.157 272 194.122 272 192C272 189.878 271.157 187.843 269.657 186.343C268.157 184.843 266.122 184 264 184H240V144C240 141.878 239.157 139.843 237.657 138.343C236.157 136.843 234.122 136 232 136C229.878 136 227.843 136.843 226.343 138.343C224.843 139.843 224 141.878 224 144V192C224 194.122 224.843 196.157 226.343 197.657C227.843 199.157 229.878 200 232 200Z" fill="#BD376B"/>
<path d="M296 200C300.747 200 305.387 198.592 309.334 195.955C313.28 193.318 316.357 189.57 318.173 185.184C319.99 180.799 320.465 175.973 319.539 171.318C318.613 166.662 316.327 162.386 312.971 159.029C309.614 155.673 305.338 153.387 300.682 152.461C296.027 151.535 291.201 152.01 286.816 153.827C282.43 155.643 278.682 158.72 276.045 162.666C273.408 166.613 272 171.253 272 176C272 182.365 274.529 188.47 279.029 192.971C283.53 197.471 289.635 200 296 200V200ZM296 168C297.582 168 299.129 168.469 300.445 169.348C301.76 170.227 302.786 171.477 303.391 172.939C303.997 174.4 304.155 176.009 303.846 177.561C303.538 179.113 302.776 180.538 301.657 181.657C300.538 182.776 299.113 183.538 297.561 183.846C296.009 184.155 294.4 183.997 292.939 183.391C291.477 182.786 290.227 181.76 289.348 180.445C288.469 179.129 288 177.582 288 176C288 173.878 288.843 171.843 290.343 170.343C291.843 168.843 293.878 168 296 168Z" fill="#BD376B"/>
<path d="M352 200C354.732 199.973 357.438 199.475 360 198.528V200C360 202.122 359.157 204.157 357.657 205.657C356.157 207.157 354.122 208 352 208H344C341.878 208 339.843 208.843 338.343 210.343C336.843 211.843 336 213.878 336 216C336 218.122 336.843 220.157 338.343 221.657C339.843 223.157 341.878 224 344 224H352C358.365 224 364.47 221.471 368.971 216.971C373.471 212.47 376 206.365 376 200V160C375.998 158.413 375.524 156.862 374.639 155.545C373.753 154.228 372.495 153.204 371.026 152.604C369.557 152.003 367.942 151.854 366.388 152.173C364.833 152.493 363.409 153.268 362.296 154.4C359.043 152.825 355.476 152.004 351.861 152.001C348.246 151.997 344.677 152.81 341.421 154.378C338.164 155.947 335.304 158.231 333.054 161.059C330.804 163.888 329.221 167.189 328.425 170.715C327.629 174.241 327.64 177.901 328.456 181.422C329.273 184.943 330.874 188.235 333.141 191.05C335.407 193.866 338.281 196.133 341.546 197.683C344.812 199.233 348.385 200.025 352 200V200ZM352 168C353.582 168 355.129 168.469 356.445 169.348C357.76 170.227 358.786 171.477 359.391 172.939C359.997 174.4 360.155 176.009 359.846 177.561C359.538 179.113 358.776 180.538 357.657 181.657C356.538 182.776 355.113 183.538 353.561 183.846C352.009 184.155 350.4 183.997 348.939 183.391C347.477 182.786 346.227 181.76 345.348 180.445C344.469 179.129 344 177.582 344 176C344 173.878 344.843 171.843 346.343 170.343C347.843 168.843 349.878 168 352 168Z" fill="#BD376B"/>
<path d="M392 200C394.122 200 396.157 199.157 397.657 197.657C399.157 196.157 400 194.122 400 192V160C400 157.878 399.157 155.843 397.657 154.343C396.157 152.843 394.122 152 392 152C389.878 152 387.843 152.843 386.343 154.343C384.843 155.843 384 157.878 384 160V192C384 194.122 384.843 196.157 386.343 197.657C387.843 199.157 389.878 200 392 200Z" fill="#BD376B"/>
<path d="M416 200C418.122 200 420.157 199.157 421.657 197.657C423.157 196.157 424 194.122 424 192V172C424 170.939 424.421 169.922 425.172 169.172C425.922 168.421 426.939 168 428 168C429.061 168 430.078 168.421 430.828 169.172C431.579 169.922 432 170.939 432 172V192C432 194.122 432.843 196.157 434.343 197.657C435.843 199.157 437.878 200 440 200C442.122 200 444.157 199.157 445.657 197.657C447.157 196.157 448 194.122 448 192V172C448.006 168.716 447.202 165.482 445.659 162.583C444.117 159.685 441.882 157.212 439.155 155.383C436.428 153.555 433.291 152.427 430.024 152.101C426.757 151.774 423.459 152.259 420.424 153.512C419.139 152.566 417.595 152.038 416 152C413.878 152 411.843 152.843 410.343 154.343C408.843 155.843 408 157.878 408 160V192C408 194.122 408.843 196.157 410.343 197.657C411.843 199.157 413.878 200 416 200Z" fill="#BD376B"/>
<path d="M392 144C396.418 144 400 140.418 400 136C400 131.582 396.418 128 392 128C387.582 128 384 131.582 384 136C384 140.418 387.582 144 392 144Z" fill="#BD376B"/>
</svg>
