<svg width="512" height="512" viewBox="0 0 512 512" fill="none" xmlns="http://www.w3.org/2000/svg">
<path d="M290.043 446.021H239.087C236.435 446.021 233.891 447.075 232.016 448.95C230.141 450.825 229.087 453.369 229.087 456.021C229.087 458.673 230.141 461.217 232.016 463.092C233.891 464.967 236.435 466.021 239.087 466.021H290.043C292.695 466.021 295.239 464.967 297.114 463.092C298.989 461.217 300.043 458.673 300.043 456.021C300.043 453.369 298.989 450.825 297.114 448.95C295.239 447.075 292.695 446.021 290.043 446.021Z" fill="url(#paint0_linear)"/>
<path d="M464 166C443.837 166 426.408 171.643 413.6 182.317C412.419 183.302 411.213 184.393 410 185.584V32C409.98 25.1105 407.234 18.509 402.363 13.6374C397.491 8.76577 390.889 6.02005 384 6H144C137.111 6.02005 130.509 8.76577 125.637 13.6374C120.766 18.509 118.02 25.1105 118 32V58.6L116.761 57.361C108.884 49.4841 98.2006 45.0589 87.061 45.0589C75.9213 45.0589 65.2379 49.4841 57.361 57.361C49.4841 65.2379 45.0588 75.9213 45.0588 87.061C45.0588 98.2007 49.4841 108.884 57.361 116.761L100.635 160.035C93.6309 162.078 87.2795 165.909 82.2057 171.152C77.1319 176.394 73.5107 182.868 71.6985 189.935C69.8862 197.002 69.9454 204.419 71.8703 211.457C73.7951 218.494 77.5192 224.909 82.676 230.07L107.292 254.686C99.4762 255.637 92.0852 258.766 85.9626 263.716C79.84 268.667 75.2324 275.238 72.6656 282.682C70.0989 290.125 69.6764 298.14 71.4465 305.812C73.2165 313.484 77.1077 320.504 82.676 326.07L99.29 342.687C91.4742 343.638 84.0832 346.767 77.9606 351.717C71.838 356.668 67.2304 363.239 64.6636 370.683C62.0969 378.126 61.6744 386.141 63.4445 393.813C65.2145 401.485 69.1057 408.505 74.674 414.071L118 457.4V480C118.008 486.893 120.749 493.502 125.624 498.376C130.498 503.251 137.107 505.992 144 506H336C338.652 506 341.196 504.946 343.071 503.071C344.946 501.196 346 498.652 346 496V400C346.02 391.62 347.981 383.359 351.728 375.864C355.476 368.369 360.908 361.844 367.6 356.8L406 328C407.236 327.063 408.24 325.854 408.933 324.467C409.627 323.079 409.992 321.551 410 320V240C410 200.173 434.31 189.065 454 186.6V496C454 498.652 455.054 501.196 456.929 503.071C458.804 504.946 461.348 506 464 506C466.652 506 469.196 504.946 471.071 503.071C472.946 501.196 474 498.652 474 496V176C474 173.348 472.946 170.804 471.071 168.929C469.196 167.054 466.652 166 464 166V166ZM144 26H384C385.591 26.0016 387.116 26.6342 388.241 27.7591C389.366 28.884 389.998 30.4092 390 32V61.956H138V32C138.002 30.4092 138.634 28.884 139.759 27.7591C140.884 26.6342 142.409 26.0016 144 26ZM65.055 87.06C64.855 67.688 89.066 57.675 102.619 71.501L118 86.883V149.118L71.5 102.618C69.4503 100.58 67.8253 98.1552 66.719 95.4846C65.6127 92.8141 65.0471 89.9506 65.055 87.06V87.06ZM96.816 184.816C105.006 176.281 119.74 176.281 127.929 184.816L173.184 230.071C193.057 251.414 163.332 281.064 142.071 261.184L96.816 215.929C92.6967 211.8 90.3833 206.205 90.3833 200.372C90.3833 194.54 92.6967 188.945 96.816 184.816V184.816ZM187.326 215.929L176.457 205.059C178.525 185.177 187.452 166.636 201.704 152.62C215.956 138.604 234.644 129.988 254.557 128.252C274.471 126.516 294.368 131.769 310.83 143.107C327.292 154.445 339.293 171.162 344.77 190.386C350.248 209.61 348.86 230.142 340.846 248.454C332.832 266.766 318.692 281.716 300.854 290.737C283.016 299.757 262.593 302.285 243.094 297.886C223.595 293.487 206.237 282.435 194 266.629C198.611 258.619 200.456 249.312 199.25 240.149C198.044 230.985 193.853 222.473 187.326 215.929V215.929ZM96.816 280.816C105.006 272.281 119.74 272.281 127.929 280.816L173.184 326.071C193.057 347.414 163.332 377.064 142.071 357.184L96.816 311.929C92.6967 307.8 90.3833 302.205 90.3833 296.372C90.3833 290.54 92.6967 284.945 96.816 280.816V280.816ZM88.816 368.816C97.006 360.281 111.74 360.281 119.929 368.816L165.184 414.071C185.057 435.414 155.332 465.064 134.071 445.184L88.816 399.929C84.6967 395.8 82.3833 390.205 82.3833 384.372C82.3833 378.54 84.6967 372.945 88.816 368.816V368.816ZM138 480V470C141.781 471.084 145.694 471.634 149.627 471.633C155.444 471.635 161.199 470.428 166.525 468.087C171.851 465.747 176.632 462.324 180.564 458.038C184.497 453.751 187.495 448.693 189.369 443.185C191.242 437.678 191.95 431.841 191.447 426.045H326V486H144C142.409 485.998 140.884 485.366 139.759 484.241C138.634 483.116 138.002 481.591 138 480ZM355.6 340.8C346.43 347.712 338.985 356.654 333.849 366.925C328.714 377.196 326.027 388.517 326 400V406.04H184.371C182.886 403.848 181.197 401.802 179.326 399.929L162.71 383.313C170.526 382.362 177.917 379.233 184.039 374.283C190.162 369.332 194.77 362.761 197.336 355.317C199.903 347.874 200.326 339.859 198.556 332.187C196.785 324.515 192.894 317.495 187.326 311.929L162.71 287.313C168.863 286.581 174.774 284.482 180.01 281.17C195.124 299.595 216.007 312.388 239.288 317.482C262.568 322.576 286.886 319.674 308.314 309.245C329.741 298.816 347.028 281.468 357.382 260.003C367.735 238.539 370.551 214.211 365.375 190.949C360.199 167.687 347.332 146.848 328.854 131.8C310.375 116.751 287.363 108.37 263.535 108.012C239.706 107.653 216.453 115.336 197.529 129.822C178.606 144.307 165.118 164.748 159.243 187.844C159.243 187.844 139.418 168.2 138 167.1V81.956H390V315L355.6 340.8Z" fill="url(#paint1_linear)"/>
<path d="M253 224H270C273.757 224.132 277.316 225.718 279.928 228.423C282.539 231.128 283.998 234.74 283.998 238.5C283.998 242.26 282.539 245.872 279.928 248.577C277.316 251.282 273.757 252.868 270 253H244.791C241.298 253.08 238.791 249.688 239.303 246.353C239.35 243.701 238.342 241.138 236.501 239.23C234.659 237.321 232.134 236.221 229.482 236.174C226.83 236.127 224.267 237.135 222.358 238.976C220.45 240.818 219.35 243.343 219.303 245.995L219.284 247.031C219.223 250.419 219.837 253.786 221.092 256.934C222.346 260.082 224.215 262.948 226.59 265.366C228.965 267.784 231.797 269.704 234.922 271.015C238.047 272.325 241.402 273 244.791 273H252V279C252 281.652 253.054 284.196 254.929 286.071C256.804 287.946 259.348 289 262 289C264.652 289 267.196 287.946 269.071 286.071C270.946 284.196 272 281.652 272 279V272.937C280.869 272.291 289.147 268.246 295.108 261.646C301.068 255.046 304.251 246.401 303.993 237.511C303.735 228.622 300.056 220.175 293.723 213.932C287.39 207.689 278.892 204.131 270 204H253C249.287 204 245.726 202.525 243.101 199.899C240.475 197.274 239 193.713 239 190C239 186.287 240.475 182.726 243.101 180.101C245.726 177.475 249.287 176 253 176H277.811C281.333 176.294 283.166 178.209 283.311 181.744C283.255 183.056 283.457 184.366 283.907 185.6C284.357 186.834 285.045 187.967 285.933 188.935C287.726 190.889 290.222 192.051 292.872 192.165C295.522 192.279 298.108 191.336 300.063 189.543C302.017 187.75 303.179 185.254 303.293 182.604C303.441 179.165 302.891 175.732 301.677 172.512C300.464 169.291 298.61 166.349 296.23 163.864C293.849 161.378 290.99 159.4 287.824 158.049C284.659 156.697 281.253 156 277.811 156H272V150C272 147.348 270.946 144.804 269.071 142.929C267.196 141.054 264.652 140 262 140C259.348 140 256.804 141.054 254.929 142.929C253.054 144.804 252 147.348 252 150V156.025C243.076 156.29 234.615 160.055 228.444 166.507C222.273 172.958 218.887 181.578 219.018 190.505C219.15 199.432 222.787 207.949 229.146 214.216C235.504 220.483 244.072 223.997 253 224V224Z" fill="url(#paint2_linear)"/>
<defs>
<linearGradient id="paint0_linear" x1="264.565" y1="446.021" x2="264.565" y2="466.021" gradientUnits="userSpaceOnUse">
<stop stop-color="#89216B"/>
<stop offset="1" stop-color="#DA4453"/>
</linearGradient>
<linearGradient id="paint1_linear" x1="259.529" y1="6" x2="259.529" y2="506" gradientUnits="userSpaceOnUse">
<stop stop-color="#89216B"/>
<stop offset="1" stop-color="#DA4453"/>
</linearGradient>
<linearGradient id="paint2_linear" x1="261.511" y1="140" x2="261.511" y2="289" gradientUnits="userSpaceOnUse">
<stop stop-color="#89216B"/>
<stop offset="1" stop-color="#DA4453"/>
</linearGradient>
</defs>
</svg>
